<svg xmlns="http://www.w3.org/2000/svg" viewBox="0 0 900 360" font-family="ui-monospace,Menlo,Consolas,monospace">
  <rect width="900" height="360" fill="#000000"/>
  <rect width="900" height="32" fill="#161b22"/>
  <text x="450" y="20" text-anchor="middle" fill="#f0f6fc" font-size="12" font-weight="600">Voice Playback · Edge TTS · pt-BR-FranciscaNeural · 48 kbps</text>

  <!-- speaker -->
  <g transform="translate(40, 110)">
    <polygon points="0,30 30,30 60,10 60,80 30,60 0,60" fill="#79c0ff"/>
    <path d="M 70 30 Q 85 45 70 60" fill="none" stroke="#79c0ff" stroke-width="3"/>
    <path d="M 78 20 Q 100 45 78 70" fill="none" stroke="#79c0ff" stroke-width="3"/>
  </g>

  <!-- waveform (procedural) -->
  <g transform="translate(180, 100)">
  <rect x="0" y="15" width="3" height="90" fill="#79c0ff" opacity="0.95"/>
<rect x="6" y="29" width="3" height="62" fill="#79c0ff" opacity="0.95"/>
<rect x="12" y="23" width="3" height="74" fill="#79c0ff" opacity="0.95"/>
<rect x="18" y="23" width="3" height="74" fill="#79c0ff" opacity="0.95"/>
<rect x="24" y="10" width="3" height="100" fill="#79c0ff" opacity="0.95"/>
<rect x="30" y="11" width="3" height="98" fill="#79c0ff" opacity="0.95"/>
<rect x="36" y="5" width="3" height="110" fill="#79c0ff" opacity="0.95"/>
<rect x="42" y="24" width="3" height="72" fill="#79c0ff" opacity="0.95"/>
<rect x="48" y="16" width="3" height="88" fill="#79c0ff" opacity="0.95"/>
<rect x="54" y="24" width="3" height="72" fill="#79c0ff" opacity="0.95"/>
<rect x="60" y="19" width="3" height="82" fill="#79c0ff" opacity="0.95"/>
<rect x="66" y="12" width="3" height="96" fill="#79c0ff" opacity="0.95"/>
<rect x="72" y="23" width="3" height="74" fill="#79c0ff" opacity="0.95"/>
<rect x="78" y="18" width="3" height="84" fill="#79c0ff" opacity="0.95"/>
<rect x="84" y="7" width="3" height="106" fill="#79c0ff" opacity="0.95"/>
<rect x="90" y="8" width="3" height="104" fill="#79c0ff" opacity="0.95"/>
<rect x="96" y="16" width="3" height="88" fill="#79c0ff" opacity="0.95"/>
<rect x="102" y="6" width="3" height="108" fill="#79c0ff" opacity="0.95"/>
<rect x="108" y="0" width="3" height="120" fill="#79c0ff" opacity="0.95"/>
<rect x="114" y="19" width="3" height="82" fill="#79c0ff" opacity="0.95"/>
<rect x="120" y="-1" width="3" height="122" fill="#79c0ff" opacity="0.95"/>
<rect x="126" y="1" width="3" height="118" fill="#79c0ff" opacity="0.95"/>
<rect x="132" y="9" width="3" height="102" fill="#79c0ff" opacity="0.95"/>
<rect x="138" y="13" width="3" height="94" fill="#79c0ff" opacity="0.95"/>
<rect x="144" y="-7" width="3" height="134" fill="#79c0ff" opacity="0.95"/>
<rect x="150" y="22" width="3" height="76" fill="#79c0ff" opacity="0.95"/>
<rect x="156" y="28" width="3" height="64" fill="#79c0ff" opacity="0.95"/>
<rect x="162" y="27" width="3" height="66" fill="#79c0ff" opacity="0.95"/>
<rect x="168" y="8" width="3" height="104" fill="#79c0ff" opacity="0.95"/>
<rect x="174" y="14" width="3" height="92" fill="#79c0ff" opacity="0.95"/>
<rect x="180" y="8" width="3" height="104" fill="#79c0ff" opacity="0.95"/>
<rect x="186" y="9" width="3" height="102" fill="#79c0ff" opacity="0.95"/>
<rect x="192" y="13" width="3" height="94" fill="#79c0ff" opacity="0.95"/>
<rect x="198" y="2" width="3" height="116" fill="#79c0ff" opacity="0.95"/>
<rect x="204" y="16" width="3" height="88" fill="#79c0ff" opacity="0.95"/>
<rect x="210" y="11" width="3" height="98" fill="#79c0ff" opacity="0.95"/>
<rect x="216" y="4" width="3" height="112" fill="#79c0ff" opacity="0.95"/>
<rect x="222" y="8" width="3" height="104" fill="#79c0ff" opacity="0.95"/>
<rect x="228" y="2" width="3" height="116" fill="#79c0ff" opacity="0.95"/>
<rect x="234" y="8" width="3" height="104" fill="#79c0ff" opacity="0.95"/>
<rect x="240" y="5" width="3" height="110" fill="#79c0ff" opacity="0.95"/>
<rect x="246" y="20" width="3" height="80" fill="#79c0ff" opacity="0.95"/>
<rect x="252" y="15" width="3" height="90" fill="#79c0ff" opacity="0.95"/>
<rect x="258" y="13" width="3" height="94" fill="#79c0ff" opacity="0.95"/>
<rect x="264" y="17" width="3" height="86" fill="#79c0ff" opacity="0.95"/>
<rect x="270" y="13" width="3" height="94" fill="#79c0ff" opacity="0.95"/>
<rect x="276" y="15" width="3" height="90" fill="#79c0ff" opacity="0.95"/>
<rect x="282" y="11" width="3" height="98" fill="#79c0ff" opacity="0.95"/>
<rect x="288" y="1" width="3" height="118" fill="#79c0ff" opacity="0.95"/>
<rect x="294" y="7" width="3" height="106" fill="#79c0ff" opacity="0.95"/>
<rect x="300" y="22" width="3" height="76" fill="#79c0ff" opacity="0.95"/>
<rect x="306" y="25" width="3" height="70" fill="#79c0ff" opacity="0.95"/>
<rect x="312" y="23" width="3" height="74" fill="#79c0ff" opacity="0.95"/>
<rect x="318" y="6" width="3" height="108" fill="#79c0ff" opacity="0.95"/>
<rect x="324" y="13" width="3" height="94" fill="#79c0ff" opacity="0.95"/>
<rect x="330" y="13" width="3" height="94" fill="#79c0ff" opacity="0.95"/>
<rect x="336" y="23" width="3" height="74" fill="#79c0ff" opacity="0.95"/>
<rect x="342" y="9" width="3" height="102" fill="#79c0ff" opacity="0.95"/>
<rect x="348" y="22" width="3" height="76" fill="#79c0ff" opacity="0.95"/>
<rect x="354" y="16" width="3" height="88" fill="#79c0ff" opacity="0.95"/>
<rect x="360" y="1" width="3" height="118" fill="#79c0ff" opacity="0.95"/>
<rect x="366" y="9" width="3" height="102" fill="#79c0ff" opacity="0.95"/>
<rect x="372" y="10" width="3" height="100" fill="#79c0ff" opacity="0.95"/>
<rect x="378" y="6" width="3" height="108" fill="#79c0ff" opacity="0.95"/>
<rect x="384" y="2" width="3" height="116" fill="#79c0ff" opacity="0.95"/>
<rect x="390" y="3" width="3" height="114" fill="#79c0ff" opacity="0.95"/>
<rect x="396" y="15" width="3" height="90" fill="#79c0ff" opacity="0.95"/>
<rect x="402" y="20" width="3" height="80" fill="#79c0ff" opacity="0.95"/>
<rect x="408" y="12" width="3" height="96" fill="#79c0ff" opacity="0.95"/>
<rect x="414" y="13" width="3" height="94" fill="#79c0ff" opacity="0.95"/>
<rect x="420" y="13" width="3" height="94" fill="#79c0ff" opacity="0.95"/>
<rect x="426" y="-5" width="3" height="130" fill="#79c0ff" opacity="0.95"/>
<rect x="432" y="-4" width="3" height="128" fill="#79c0ff" opacity="0.95"/>
<rect x="438" y="9" width="3" height="102" fill="#79c0ff" opacity="0.95"/>
<rect x="444" y="0" width="3" height="120" fill="#79c0ff" opacity="0.95"/>
<rect x="450" y="21" width="3" height="78" fill="#79c0ff" opacity="0.95"/>
<rect x="456" y="8" width="3" height="104" fill="#79c0ff" opacity="0.95"/>
<rect x="462" y="18" width="3" height="84" fill="#79c0ff" opacity="0.95"/>
<rect x="468" y="22" width="3" height="76" fill="#79c0ff" opacity="0.95"/>
<rect x="474" y="22" width="3" height="76" fill="#79c0ff" opacity="0.95"/>
<rect x="480" y="14" width="3" height="92" fill="#79c0ff" opacity="0.95"/>
<rect x="486" y="21" width="3" height="78" fill="#79c0ff" opacity="0.95"/>
<rect x="492" y="12" width="3" height="96" fill="#79c0ff" opacity="0.95"/>
<rect x="498" y="4" width="3" height="112" fill="#79c0ff" opacity="0.95"/>
<rect x="504" y="16" width="3" height="88" fill="#79c0ff" opacity="0.95"/>
<rect x="510" y="19" width="3" height="82" fill="#79c0ff" opacity="0.95"/>
<rect x="516" y="0" width="3" height="120" fill="#79c0ff" opacity="0.95"/>
<rect x="522" y="11" width="3" height="98" fill="#79c0ff" opacity="0.95"/>
<rect x="528" y="21" width="3" height="78" fill="#79c0ff" opacity="0.95"/>
<rect x="534" y="21" width="3" height="78" fill="#79c0ff" opacity="0.95"/>
<rect x="540" y="19" width="3" height="82" fill="#79c0ff" opacity="0.95"/>
<rect x="546" y="6" width="3" height="108" fill="#79c0ff" opacity="0.95"/>
<rect x="552" y="1" width="3" height="118" fill="#79c0ff" opacity="0.95"/>
<rect x="558" y="10" width="3" height="100" fill="#79c0ff" opacity="0.95"/>
<rect x="564" y="18" width="3" height="84" fill="#79c0ff" opacity="0.95"/>
<rect x="570" y="9" width="3" height="102" fill="#79c0ff" opacity="0.95"/>
<rect x="576" y="-6" width="3" height="132" fill="#79c0ff" opacity="0.95"/>
<rect x="582" y="5" width="3" height="110" fill="#79c0ff" opacity="0.95"/>
<rect x="588" y="-7" width="3" height="134" fill="#79c0ff" opacity="0.95"/>
<rect x="594" y="-5" width="3" height="130" fill="#79c0ff" opacity="0.95"/>
<rect x="600" y="30" width="3" height="60" fill="#79c0ff" opacity="0.95"/>
<rect x="606" y="13" width="3" height="94" fill="#79c0ff" opacity="0.95"/>
<rect x="612" y="13" width="3" height="94" fill="#79c0ff" opacity="0.95"/>
<rect x="618" y="16" width="3" height="88" fill="#79c0ff" opacity="0.95"/>
<rect x="624" y="22" width="3" height="76" fill="#79c0ff" opacity="0.95"/>
<rect x="630" y="12" width="3" height="96" fill="#79c0ff" opacity="0.95"/>
<rect x="636" y="24" width="3" height="72" fill="#79c0ff" opacity="0.95"/>
<rect x="642" y="16" width="3" height="88" fill="#79c0ff" opacity="0.95"/>
<rect x="648" y="15" width="3" height="90" fill="#79c0ff" opacity="0.95"/>
<rect x="654" y="2" width="3" height="116" fill="#79c0ff" opacity="0.95"/>
<rect x="660" y="3" width="3" height="114" fill="#79c0ff" opacity="0.95"/>
<rect x="666" y="18" width="3" height="84" fill="#79c0ff" opacity="0.95"/>
<rect x="672" y="11" width="3" height="98" fill="#79c0ff" opacity="0.95"/>
<rect x="678" y="18" width="3" height="84" fill="#79c0ff" opacity="0.95"/>
  </g>

  <!-- caption -->
  <rect x="40" y="220" width="820" height="100" fill="#161b22" stroke="#30363d" stroke-width="1.5" rx="8"/>
  <text x="60" y="252" fill="#a5d6ff" font-size="16" font-weight="500">"Olá Ney, aqui é o Hermes. Esta é a voz da Francisca, em</text>
  <text x="60" y="276" fill="#a5d6ff" font-size="16" font-weight="500">português brasileiro. Se você está ouvindo, a caixa de som</text>
  <text x="60" y="300" fill="#a5d6ff" font-size="16" font-weight="500">está respondendo. O TTS foi trocado de Gemini para Edge."</text>

  <!-- status -->
  <text x="40" y="342" fill="#56d364" font-size="14" font-weight="600">● playing · 24s · 141 KB · MP3</text>
  <text x="280" y="342" fill="#d0d7de" font-size="13">provider=edge · voice=pt-BR-FranciscaNeural</text>
</svg>